<svg width="137" height="49" viewBox="0 0 137 49" fill="none" xmlns="http://www.w3.org/2000/svg">
<rect width="137" height="49" rx="10" fill="black"/>
<path d="M51.6383 17.2179C51.6383 17.8824 51.4669 18.4639 51.0382 18.8793C50.5238 19.3777 49.9236 19.6269 49.152 19.6269C48.3803 19.6269 47.7802 19.3777 47.2658 18.8793C46.7513 18.3809 46.4941 17.7994 46.4941 17.0517C46.4941 16.3041 46.7513 15.7226 47.2658 15.2242C47.7802 14.7258 48.3803 14.4766 49.152 14.4766C49.4949 14.4766 49.8379 14.5596 50.1808 14.7258C50.5238 14.8919 50.781 15.0581 50.9524 15.3073L50.5238 15.7226C50.1808 15.3073 49.7521 15.1411 49.152 15.1411C48.6376 15.1411 48.1231 15.3073 47.7802 15.7226C47.3515 16.0549 47.18 16.5533 47.18 17.1348C47.18 17.7163 47.3515 18.2147 47.7802 18.547C48.2089 18.8793 48.6376 19.1285 49.152 19.1285C49.7521 19.1285 50.1808 18.9624 50.6095 18.547C50.8667 18.2978 51.0382 17.9655 51.0382 17.5502H49.152V16.9687H51.6383C51.6383 16.9687 51.6383 17.1348 51.6383 17.2179Z" fill="white" stroke="white" stroke-width="0.243672" stroke-miterlimit="10"/>
<path d="M55.5848 15.1401H53.2699V16.7184H55.4133V17.2999H53.2699V18.8782H55.5848V19.5428H52.584V14.5586H55.5848V15.1401Z" fill="white" stroke="white" stroke-width="0.243672" stroke-miterlimit="10"/>
<path d="M58.4129 19.5428H57.7271V15.1401H56.2695V14.5586H59.8705V15.1401H58.4129V19.5428Z" fill="white" stroke="white" stroke-width="0.243672" stroke-miterlimit="10"/>
<path d="M62.3555 19.5428V14.5586H63.0414V19.5428H62.3555Z" fill="white" stroke="white" stroke-width="0.243672" stroke-miterlimit="10"/>
<path d="M65.9579 19.5428H65.272V15.1401H63.8145V14.5586H67.3297V15.1401H65.8721V19.5428H65.9579Z" fill="white" stroke="white" stroke-width="0.243672" stroke-miterlimit="10"/>
<path d="M74.1026 18.8793C73.5882 19.3777 72.9881 19.6269 72.2164 19.6269C71.4448 19.6269 70.8446 19.3777 70.3302 18.8793C69.8158 18.3809 69.5586 17.7994 69.5586 17.0517C69.5586 16.3041 69.8158 15.7226 70.3302 15.2242C70.8446 14.7258 71.4448 14.4766 72.2164 14.4766C72.9881 14.4766 73.5882 14.7258 74.1026 15.2242C74.617 15.7226 74.8743 16.3041 74.8743 17.0517C74.8743 17.7994 74.617 18.3809 74.1026 18.8793ZM70.8446 18.4639C71.1876 18.7962 71.702 19.0454 72.2164 19.0454C72.7308 19.0454 73.2453 18.8793 73.5882 18.4639C73.9312 18.1317 74.1884 17.6332 74.1884 17.0517C74.1884 16.4702 74.0169 15.9718 73.5882 15.6395C73.2453 15.3073 72.7308 15.0581 72.2164 15.0581C71.702 15.0581 71.1876 15.2242 70.8446 15.6395C70.5017 15.9718 70.2445 16.4702 70.2445 17.0517C70.2445 17.6332 70.416 18.1317 70.8446 18.4639Z" fill="white" stroke="white" stroke-width="0.243672" stroke-miterlimit="10"/>
<path d="M75.8164 19.5428V14.5586H76.588L79.0744 18.4629V17.466V14.5586H79.7603V19.5428H79.0744L76.4166 15.4724V16.4692V19.5428H75.8164Z" fill="white" stroke="white" stroke-width="0.243672" stroke-miterlimit="10"/>
<path d="M69.3012 26.8535C67.2435 26.8535 65.6146 28.3488 65.6146 30.4255C65.6146 32.4192 67.2435 33.9975 69.3012 33.9975C71.3589 33.9975 72.9879 32.5023 72.9879 30.4255C72.9879 28.2657 71.3589 26.8535 69.3012 26.8535ZM69.3012 32.5023C68.1866 32.5023 67.2435 31.5885 67.2435 30.3425C67.2435 29.0964 68.1866 28.1826 69.3012 28.1826C70.4158 28.1826 71.3589 29.0133 71.3589 30.3425C71.3589 31.5885 70.4158 32.5023 69.3012 32.5023ZM61.3277 26.8535C59.27 26.8535 57.641 28.3488 57.641 30.4255C57.641 32.4192 59.27 33.9975 61.3277 33.9975C63.3854 33.9975 65.0144 32.5023 65.0144 30.4255C65.0144 28.2657 63.3854 26.8535 61.3277 26.8535ZM61.3277 32.5023C60.2132 32.5023 59.27 31.5885 59.27 30.3425C59.27 29.0964 60.2132 28.1826 61.3277 28.1826C62.4423 28.1826 63.3854 29.0133 63.3854 30.3425C63.3854 31.5885 62.4423 32.5023 61.3277 32.5023ZM51.811 27.9334V29.4287H55.4976C55.4119 30.2594 55.069 30.924 54.6403 31.3393C54.1258 31.8377 53.2685 32.4192 51.811 32.4192C49.4961 32.4192 47.7813 30.6747 47.7813 28.4318C47.7813 26.189 49.5818 24.4445 51.811 24.4445C53.0113 24.4445 53.9544 24.9429 54.6403 25.5244L55.7548 24.4445C54.8117 23.6138 53.6114 22.9492 51.8967 22.9492C48.8102 22.9492 46.1523 25.4413 46.1523 28.4318C46.1523 31.4224 48.8102 33.9145 51.8967 33.9145C53.6114 33.9145 54.8117 33.4161 55.8406 32.3361C56.8694 31.3393 57.2124 29.9271 57.2124 28.8472C57.2124 28.5149 57.2124 28.1826 57.1266 27.9334H51.811ZM90.7354 29.0964C90.3924 28.2657 89.5351 26.8535 87.6489 26.8535C85.7627 26.8535 84.2194 28.2657 84.2194 30.4255C84.2194 32.4192 85.7626 33.9975 87.8203 33.9975C89.4493 33.9975 90.4782 33.0007 90.8211 32.4192L89.6208 31.5885C89.1921 32.17 88.6777 32.5854 87.8203 32.5854C86.963 32.5854 86.4485 32.2531 86.0199 31.5054L90.9069 29.5118L90.7354 29.0964ZM85.7627 30.2594C85.7627 28.9303 86.8772 28.1826 87.6489 28.1826C88.249 28.1826 88.8492 28.5149 89.0206 28.9303L85.7627 30.2594ZM81.733 33.6653H83.362V23.2815H81.733V33.6653ZM79.1609 27.6011C78.7323 27.1858 78.0464 26.7704 77.189 26.7704C75.3885 26.7704 73.6738 28.3488 73.6738 30.3425C73.6738 32.3361 75.3028 33.8314 77.189 33.8314C78.0464 33.8314 78.7323 33.4161 79.0752 33.0007H79.1609V33.4991C79.1609 34.8282 78.3893 35.5759 77.189 35.5759C76.2459 35.5759 75.56 34.9113 75.3885 34.3298L74.0167 34.9113C74.4454 35.8251 75.4743 36.9881 77.2747 36.9881C79.1609 36.9881 80.7042 35.9082 80.7042 33.333V27.0197H79.1609V27.6011ZM77.2747 32.5023C76.1602 32.5023 75.2171 31.5885 75.2171 30.3425C75.2171 29.0964 76.1602 28.1826 77.2747 28.1826C78.3893 28.1826 79.2467 29.0964 79.2467 30.3425C79.2467 31.5885 78.3893 32.5023 77.2747 32.5023ZM98.1945 23.2815H94.3363V33.6653H95.9653V29.761H98.1945C99.9949 29.761 101.71 28.5149 101.71 26.5212C101.71 24.5276 99.9949 23.2815 98.1945 23.2815ZM98.2802 28.2657H95.9653V24.6937H98.2802C99.4805 24.6937 100.166 25.6905 100.166 26.4382C100.081 27.3519 99.3948 28.2657 98.2802 28.2657ZM108.14 26.7704C106.94 26.7704 105.739 27.2689 105.311 28.3488L106.768 28.9303C107.111 28.3488 107.625 28.1826 108.226 28.1826C109.083 28.1826 109.855 28.6811 109.94 29.5118V29.5948C109.683 29.4287 108.997 29.1795 108.311 29.1795C106.768 29.1795 105.225 30.0102 105.225 31.5054C105.225 32.9176 106.511 33.8314 107.883 33.8314C108.997 33.8314 109.512 33.333 109.94 32.8346H110.026V33.6653H111.569V29.6779C111.398 27.8504 109.94 26.7704 108.14 26.7704ZM107.968 32.5023C107.454 32.5023 106.682 32.2531 106.682 31.5885C106.682 30.7578 107.625 30.5086 108.397 30.5086C109.083 30.5086 109.426 30.6747 109.855 30.8409C109.683 31.8377 108.826 32.5023 107.968 32.5023ZM116.971 27.0197L115.17 31.5054H115.085L113.198 27.0197H111.484L114.313 33.333L112.684 36.8219H114.313L118.686 27.0197H116.971ZM102.567 33.6653H104.196V23.2815H102.567V33.6653Z" fill="white"/>
<path d="M20.0029 14.9746C19.7457 15.2238 19.5742 15.6392 19.5742 16.1376V34.4961C19.5742 34.9945 19.7457 35.4099 20.0029 35.6591L20.0886 35.7421L30.72 25.4414V25.3584V25.2753L20.0029 14.9746Z" fill="url(#paint0_linear_2150_19900)"/>
<path d="M34.148 28.9321L30.6328 25.5262V25.36V25.277L34.148 21.8711L34.2337 21.9542L38.4348 24.2801C39.6352 24.9447 39.6352 26.0246 38.4348 26.6892L34.148 28.9321Z" fill="url(#paint1_linear_2150_19900)"/>
<path d="M34.234 28.8483L30.6331 25.3594L19.916 35.7431C20.3447 36.1585 20.9449 36.1585 21.7165 35.8262L34.234 28.8483Z" fill="url(#paint2_linear_2150_19900)"/>
<path d="M34.234 21.8691L21.7165 14.9742C20.9449 14.5589 20.3447 14.642 19.916 15.0573L30.6331 25.358L34.234 21.8691Z" fill="url(#paint3_linear_2150_19900)"/>
<defs>
<linearGradient id="paint0_linear_2150_19900" x1="29.7766" y1="15.9795" x2="15.8424" y2="30.361" gradientUnits="userSpaceOnUse">
<stop stop-color="#00A0FF"/>
<stop offset="0.00657445" stop-color="#00A1FF"/>
<stop offset="0.2601" stop-color="#00BEFF"/>
<stop offset="0.5122" stop-color="#00D2FF"/>
<stop offset="0.7604" stop-color="#00DFFF"/>
<stop offset="1" stop-color="#00E3FF"/>
</linearGradient>
<linearGradient id="paint1_linear_2150_19900" x1="40.0076" y1="25.3612" x2="19.262" y2="25.3612" gradientUnits="userSpaceOnUse">
<stop stop-color="#FFE000"/>
<stop offset="0.4087" stop-color="#FFBD00"/>
<stop offset="0.7754" stop-color="#FFA500"/>
<stop offset="1" stop-color="#FF9C00"/>
</linearGradient>
<linearGradient id="paint2_linear_2150_19900" x1="32.2852" y1="27.2667" x2="13.3893" y2="46.7691" gradientUnits="userSpaceOnUse">
<stop stop-color="#FF3A44"/>
<stop offset="1" stop-color="#C31162"/>
</linearGradient>
<linearGradient id="paint3_linear_2150_19900" x1="17.2559" y1="8.89027" x2="25.6937" y2="17.599" gradientUnits="userSpaceOnUse">
<stop stop-color="#32A071"/>
<stop offset="0.0685" stop-color="#2DA771"/>
<stop offset="0.4762" stop-color="#15CF74"/>
<stop offset="0.8009" stop-color="#06E775"/>
<stop offset="1" stop-color="#00F076"/>
</linearGradient>
</defs>
</svg>
